<svg width="58" height="58" viewBox="0 0 58 58" fill="none" xmlns="http://www.w3.org/2000/svg">
<g clip-path="url(#clip0_35_14)">
<path d="M45 15.5L41 5.5H17L13 15.5H3.799C1.701 15.5 0 17.201 0 19.299V48.667C0 50.784 1.716 52.5 3.833 52.5H54.166C56.283 52.5 57.999 50.784 57.999 48.667V19.299C57.999 17.201 56.298 15.5 54.2 15.5H45Z" fill="#556080"/>
<path d="M29 48.5C38.3888 48.5 46 40.8888 46 31.5C46 22.1112 38.3888 14.5 29 14.5C19.6112 14.5 12 22.1112 12 31.5C12 40.8888 19.6112 48.5 29 48.5Z" fill="#424A60" stroke="#2B313D" stroke-width="2" stroke-miterlimit="10" stroke-linecap="round"/>
<path d="M29 42.5C35.0751 42.5 40 37.5751 40 31.5C40 25.4249 35.0751 20.5 29 20.5C22.9249 20.5 18 25.4249 18 31.5C18 37.5751 22.9249 42.5 29 42.5Z" fill="#7383BF"/>
<path d="M10 10.5H6V15.5H10V10.5Z" fill="#38454F"/>
<path d="M51 25.5C52.6569 25.5 54 24.1569 54 22.5C54 20.8431 52.6569 19.5 51 19.5C49.3431 19.5 48 20.8431 48 22.5C48 24.1569 49.3431 25.5 51 25.5Z" fill="#EFCE4A"/>
<path d="M32 31.5C32 35.095 33.418 38.278 35.6 40.285C38.267 38.278 40 35.095 40 31.5C40 27.905 38.267 24.722 35.6 22.715C33.418 24.722 32 27.905 32 31.5Z" fill="#879AD8"/>
<path d="M18 31.5C18 35.095 19.733 38.278 22.4 40.285C24.582 38.278 26 35.095 26 31.5C26 27.905 24.582 24.722 22.4 22.715C19.733 24.722 18 27.905 18 31.5Z" fill="#879AD8"/>
<path d="M29 43.5C22.383 43.5 17 38.117 17 31.5C17 24.883 22.383 19.5 29 19.5C35.617 19.5 41 24.883 41 31.5C41 38.117 35.617 43.5 29 43.5ZM29 21.5C23.486 21.5 19 25.986 19 31.5C19 37.014 23.486 41.5 29 41.5C34.514 41.5 39 37.014 39 31.5C39 25.986 34.514 21.5 29 21.5Z" fill="#556080"/>
<path d="M30.5 31.5C32.433 31.5 34 29.933 34 28C34 26.067 32.433 24.5 30.5 24.5C28.567 24.5 27 26.067 27 28C27 29.933 28.567 31.5 30.5 31.5Z" fill="#4674E8"/>
<path d="M28 31.5C29.1046 31.5 30 30.6046 30 29.5C30 28.3954 29.1046 27.5 28 27.5C26.8954 27.5 26 28.3954 26 29.5C26 30.6046 26.8954 31.5 28 31.5Z" fill="#BF4D90"/>
<path d="M25 29.5C26.1046 29.5 27 28.6046 27 27.5C27 26.3954 26.1046 25.5 25 25.5C23.8954 25.5 23 26.3954 23 27.5C23 28.6046 23.8954 29.5 25 29.5Z" fill="#BCCEF7"/>
</g>
<defs>
<clipPath id="clip0_35_14">
<rect width="58" height="58" fill="white"/>
</clipPath>
</defs>
</svg>
