<svg width="662" height="407" viewBox="0 0 662 407" fill="none" xmlns="http://www.w3.org/2000/svg">
<g clip-path="url(#clip0_4_304)">
<mask id="mask0_4_304" style="mask-type:luminance" maskUnits="userSpaceOnUse" x="0" y="0" width="662" height="407">
<path d="M661.375 0H0V407H661.375V0Z" fill="white"/>
</mask>
<g mask="url(#mask0_4_304)">
<path d="M361.908 368.295C353.464 372.933 342.858 369.847 338.22 361.402L313.748 316.841C309.11 308.396 312.196 297.791 320.642 293.154C329.086 288.516 339.69 291.602 344.329 300.048L368.801 344.608C373.438 353.052 370.352 363.657 361.908 368.295Z" fill="#92C6EA"/>
<path d="M342.565 372.328C334.348 367.299 331.764 356.56 336.793 348.343L363.331 304.981C368.36 296.763 379.099 294.178 387.316 299.207C395.534 304.237 398.118 314.977 393.089 323.194L366.551 366.556C361.522 374.772 350.784 377.357 342.565 372.328Z" fill="#92C6EA"/>
<path d="M395.943 288.498C402.08 294.293 402.357 303.966 396.56 310.104C390.764 316.242 381.09 316.519 374.953 310.723C368.816 304.927 368.538 295.253 374.334 289.116C380.13 282.979 389.805 282.702 395.943 288.498Z" fill="#FF8383"/>
<path d="M374.977 299.76C373.024 300.773 370.619 300.011 369.607 298.059L367.105 293.237C366.092 291.284 366.854 288.881 368.807 287.868C370.76 286.854 373.164 287.617 374.176 289.568L376.677 294.39C377.692 296.342 376.929 298.746 374.977 299.76Z" fill="#FF8383"/>
<path d="M385.85 278.67L383.652 293.248C383.311 295.507 381.204 297.061 378.946 296.72C376.688 296.379 375.134 294.272 375.474 292.015L377.673 277.438C378.014 275.18 380.12 273.625 382.379 273.966C384.636 274.307 386.19 276.413 385.85 278.67Z" fill="#FF8383"/>
<path d="M395.797 279.327L392.387 293.669C391.861 295.891 389.632 297.264 387.41 296.737C385.188 296.209 383.816 293.981 384.344 291.758L387.749 277.416C388.278 275.195 390.506 273.822 392.727 274.349C394.95 274.877 396.323 277.105 395.797 279.327Z" fill="#FF8383"/>
<path d="M404.367 284.9L398.064 298.227C397.089 300.292 394.623 301.174 392.558 300.197C390.495 299.221 389.613 296.756 390.59 294.692L396.891 281.367C397.868 279.302 400.332 278.42 402.396 279.397C404.461 280.373 405.344 282.835 404.367 284.9Z" fill="#FF8383"/>
<path d="M307.742 274.969L301.809 274.817C297.821 274.714 294.672 271.399 294.773 267.412L295.581 235.879L315.954 236.401L315.147 267.934C315.045 271.921 311.73 275.071 307.742 274.969Z" fill="#FF8383"/>
<path d="M315.938 235.292L295.565 234.771L295.36 242.772C295.159 250.613 301.634 257.404 309.448 256.728C309.935 256.686 310.421 256.618 310.908 256.525C312.537 256.211 314.051 255.61 315.438 254.797L315.938 235.292Z" fill="#D15E79"/>
<path d="M325.734 203.96C331.125 213.451 325.205 225.811 312.512 231.567C299.819 237.322 285.159 234.293 279.768 224.803C274.377 215.311 280.296 202.952 292.989 197.196C305.683 191.441 320.342 194.47 325.734 203.96Z" fill="#1B2A67"/>
<path d="M340.009 207.47C343.463 214.994 336.636 223.847 324.763 227.245C312.889 230.642 300.463 227.297 297.01 219.773C293.557 212.247 300.384 203.394 312.257 199.996C324.132 196.6 336.556 199.946 340.009 207.47Z" fill="#1B2A67"/>
<path d="M320.189 188.179C327.272 192.465 326.598 203.625 318.684 213.105C310.768 222.585 298.61 226.797 291.526 222.511C284.444 218.226 285.116 207.067 293.032 197.586C300.946 188.105 313.106 183.893 320.189 188.179Z" fill="#1B2A67"/>
<path d="M327.665 230.082C329.824 241.285 324.088 251.813 314.856 253.591C305.625 255.369 296.393 247.727 294.234 236.522L292.535 227.703C290.375 216.5 296.108 205.974 305.339 204.195C314.572 202.416 323.807 210.058 325.965 221.264L327.665 230.082Z" fill="#FF8383"/>
<path d="M307.519 202.83C302.338 198.267 293.461 200.63 287.691 208.108C281.923 215.586 281.445 225.345 286.627 229.908C291.81 234.47 300.687 232.108 306.455 224.631C312.225 217.153 312.702 207.392 307.519 202.83Z" fill="#1B2A67"/>
<path d="M311.239 227.81C310.944 227.814 310.65 227.678 310.465 227.421C310.17 227.001 310.266 226.424 310.683 226.127C310.805 226.043 313.728 223.998 316.883 225.778C317.33 226.031 317.489 226.601 317.236 227.047C316.986 227.495 316.422 227.653 315.969 227.399C313.856 226.206 311.848 227.583 311.761 227.642C311.602 227.753 311.421 227.807 311.239 227.81Z" fill="#85294E"/>
<path d="M327.295 227.593C327.113 227.595 326.929 227.545 326.766 227.436C326.678 227.379 324.634 226.058 322.554 227.309C322.112 227.575 321.544 227.432 321.277 226.991C321.012 226.552 321.154 225.979 321.594 225.713C324.704 223.837 327.677 225.809 327.802 225.892C328.228 226.18 328.34 226.757 328.053 227.184C327.876 227.446 327.589 227.589 327.295 227.593Z" fill="#85294E"/>
<path d="M315.472 230.256C315.458 230.792 315.012 231.216 314.475 231.202C313.939 231.189 313.517 230.743 313.532 230.207C313.545 229.67 313.991 229.248 314.526 229.262C315.062 229.275 315.486 229.721 315.472 230.256Z" fill="#85294E"/>
<path d="M324.789 230.495C324.775 231.03 324.328 231.454 323.793 231.44C323.256 231.426 322.834 230.98 322.848 230.445C322.861 229.908 323.308 229.486 323.843 229.5C324.379 229.513 324.803 229.959 324.789 230.495Z" fill="#85294E"/>
<path d="M327.145 237.218C327.042 237.219 326.938 237.218 326.834 237.214C324.797 237.165 322.899 236.322 321.494 234.842C320.091 233.364 319.345 231.424 319.397 229.385C319.449 227.346 320.292 225.451 321.77 224.047C323.251 222.643 325.173 221.884 327.227 221.949C329.266 221.998 331.162 222.843 332.568 224.322C333.973 225.8 334.719 227.737 334.666 229.778C334.614 231.817 333.77 233.714 332.291 235.117C330.887 236.453 329.07 237.192 327.145 237.218ZM326.935 223.236C325.336 223.258 323.827 223.873 322.66 224.982C321.432 226.149 320.731 227.723 320.687 229.419C320.643 231.113 321.262 232.725 322.431 233.952C323.598 235.182 325.175 235.883 326.867 235.926C328.575 235.932 330.173 235.351 331.402 234.182C332.631 233.015 333.333 231.44 333.376 229.744C333.419 228.048 332.799 226.439 331.632 225.209C330.463 223.981 328.888 223.282 327.194 223.238C327.107 223.236 327.022 223.235 326.935 223.236Z" fill="#FFD2D3"/>
<path d="M310.745 237.737C310.628 237.739 310.513 237.738 310.398 237.734C305.671 237.612 301.924 233.669 302.045 228.945C302.103 226.653 303.051 224.525 304.711 222.946C306.37 221.366 308.548 220.514 310.837 220.591C313.127 220.648 315.256 221.595 316.834 223.255C318.413 224.916 319.249 227.09 319.19 229.381C319.13 231.671 318.184 233.8 316.523 235.378C314.947 236.877 312.905 237.708 310.745 237.737ZM310.511 222.038C308.715 222.063 307.018 222.75 305.709 223.996C304.328 225.308 303.542 227.077 303.494 228.982C303.393 232.908 306.507 236.184 310.434 236.285C312.318 236.35 314.144 235.639 315.524 234.328C316.904 233.016 317.691 231.246 317.74 229.343C317.789 227.439 317.094 225.632 315.782 224.254C314.472 222.875 312.703 222.085 310.799 222.039C310.704 222.035 310.608 222.037 310.511 222.038Z" fill="#FFD2D3"/>
<path d="M317.731 230.403L320.887 230.484C321.253 230.494 321.558 230.203 321.568 229.837C321.577 229.47 321.288 229.165 320.92 229.155L317.765 229.075C317.397 229.066 317.093 229.356 317.084 229.722C317.073 230.09 317.364 230.394 317.731 230.403Z" fill="#FFD2D3"/>
<path d="M324.107 234.787C324.033 235.896 322.76 236.924 321.265 237.082C319.769 237.241 318.618 236.47 318.693 235.361C318.768 234.251 320.04 233.223 321.536 233.064C323.031 232.907 324.183 233.678 324.107 234.787Z" fill="#85294E"/>
<path d="M323.554 240.757C323.489 243.329 321.175 245.357 318.388 245.286C315.601 245.214 313.956 242.478 314.022 239.905C317.286 239.568 320.468 239.826 323.554 240.757Z" fill="#85294E"/>
<path d="M318.752 242.432C316.547 242.207 315.178 241.471 315.026 239.819C317.77 239.634 320.456 239.876 323.073 240.6C322.717 242.097 320.913 242.652 318.752 242.432Z" fill="#FFD2D3"/>
<path d="M311.795 247.237L306.322 247.095C304.114 247.04 302.016 246.171 300.413 244.648L297.065 241.472C296.799 241.217 296.788 240.797 297.041 240.532C297.293 240.265 297.714 240.255 297.98 240.506L301.328 243.684C302.691 244.98 304.476 245.719 306.356 245.767L311.829 245.91C312.195 245.919 312.485 246.225 312.475 246.592C312.466 246.96 312.162 247.246 311.795 247.237Z" fill="#1F1028"/>
<path d="M311.779 247.901L311.777 247.901L309.558 247.843C308.824 247.825 308.245 247.213 308.264 246.477C308.285 245.747 308.894 245.168 309.626 245.187L311.846 245.245C312.58 245.263 313.161 245.876 313.14 246.61C313.121 247.342 312.512 247.92 311.779 247.901Z" fill="#FFD2D3"/>
<path d="M305.387 235.226C304.991 241.361 299.696 246.013 293.561 245.617C287.427 245.221 282.773 239.927 283.17 233.792C283.567 227.657 288.861 223.004 294.995 223.401C301.13 223.797 305.782 229.092 305.387 235.226Z" fill="#445EEA"/>
<path d="M301.323 234.963C300.985 240.2 296.829 244.196 292.041 243.886C287.253 243.577 283.645 239.08 283.984 233.844C284.323 228.608 288.478 224.611 293.266 224.921C298.055 225.231 301.661 229.727 301.323 234.963Z" fill="#91A8F6"/>
<path d="M294.008 234.492C293.871 236.613 292.425 238.247 290.78 238.141C289.133 238.035 287.911 236.228 288.048 234.107C288.185 231.986 289.628 230.352 291.275 230.457C292.921 230.564 294.144 232.37 294.008 234.492Z" fill="#DFEDF7"/>
<path d="M323.321 389.376L270.101 391.607C261.221 391.379 254.206 383.996 254.433 375.116L256.573 285.971C256.691 281.312 259.716 277.226 264.138 275.75L303.657 262.567L335.592 277.338C339.602 279.193 342.127 283.255 342.013 287.673L339.812 373.707C339.585 382.589 332.202 389.604 323.321 389.376Z" fill="#92C6EA"/>
<path d="M342.014 287.671C342.325 296.959 342.345 306.241 342.32 315.519C342.326 324.799 342.121 334.075 341.918 343.349C341.651 352.622 341.379 361.896 340.901 371.163C340.795 373.415 340.716 375.952 339.898 378.268C339.126 380.581 337.866 382.727 336.185 384.462C332.814 387.911 327.974 389.818 323.321 389.375C327.97 389.211 332.396 387.066 335.216 383.593C336.666 381.9 337.713 379.893 338.294 377.774C338.916 375.649 338.868 373.48 338.856 371.11C338.853 361.83 339.056 352.556 339.263 343.28C339.534 334.009 339.804 324.736 340.286 315.467C340.735 306.199 341.23 296.932 342.014 287.671Z" fill="#6DACCE"/>
<path d="M318.459 279.222L289.699 277.763L290.567 260.668C290.675 258.543 292.484 256.908 294.609 257.015L315.673 258.084C317.798 258.192 319.434 260.002 319.325 262.127L318.459 279.222Z" fill="#92C6EA"/>
<path d="M238.03 360.864C229.082 357.291 224.725 347.142 228.298 338.195L247.15 290.981C250.723 282.034 260.873 277.677 269.819 281.249C278.767 284.822 283.125 294.972 279.552 303.92L260.699 351.132C257.127 360.079 246.977 364.436 238.03 360.864Z" fill="#92C6EA"/>
<path d="M269.819 281.249C272.949 282.214 275.816 284.179 277.955 286.799C280.053 289.444 281.416 292.737 281.751 296.17C282.259 299.579 281.21 303.234 279.996 306.19L276.438 315.297C273.994 321.341 271.542 327.383 268.901 333.348L264.93 342.293C263.516 345.238 262.188 348.217 260.7 351.132C261.628 347.993 262.717 344.919 263.72 341.81L267.002 332.589C269.195 326.445 271.581 320.379 273.971 314.314L277.666 305.258C278.296 303.711 278.952 302.343 279.256 300.856C279.596 299.375 279.788 297.845 279.721 296.313C279.554 290.152 275.701 284.148 269.819 281.249Z" fill="#6DACCE"/>
<path d="M318.875 335.145L309.985 334.694C306.653 334.526 304.08 331.676 304.249 328.344L304.453 324.336C304.62 321.004 307.468 318.43 310.802 318.599L319.691 319.05L318.875 335.145ZM310.599 322.582C309.463 322.524 308.492 323.402 308.434 324.539L308.231 328.546C308.174 329.681 309.05 330.654 310.187 330.712L315.095 330.961L315.507 322.831L310.599 322.582Z" fill="#85294E"/>
<path d="M327.688 347.801L319.998 347.411C315.329 347.174 311.737 343.197 311.974 338.528L313.227 313.81C313.367 311.052 337.965 312.3 337.824 315.057L336.57 339.775C336.333 344.444 332.357 348.038 327.688 347.801Z" fill="#D15E79"/>
<path d="M335.386 315.759C335.336 316.753 330.779 317.328 325.21 317.046C319.642 316.763 315.168 315.73 315.217 314.737C315.269 313.744 319.824 313.167 325.393 313.45C330.963 313.732 335.435 314.766 335.386 315.759Z" fill="#85294E"/>
<path d="M228.148 345.314C228.168 335.679 235.994 327.886 245.628 327.905L296.466 328.008C306.101 328.028 313.894 335.855 313.874 345.489C313.855 355.123 306.029 362.918 296.394 362.898L245.556 362.793C235.921 362.774 228.129 354.948 228.148 345.314Z" fill="#92C6EA"/>
<path d="M245.628 327.905C252.149 327.371 258.667 327.125 265.187 326.928C271.708 326.698 278.228 326.677 284.747 326.656L294.524 326.746C297.72 326.724 301.505 327.109 304.478 328.852C307.54 330.443 310.085 332.937 311.761 335.869C313.394 338.833 314.147 342.224 313.874 345.49C313.374 338.951 309.238 333.14 303.586 330.691C302.188 330.058 300.699 329.663 299.2 329.428C297.705 329.156 296.191 329.255 294.52 329.263L284.742 329.313C278.222 329.266 271.702 329.219 265.183 328.963C258.665 328.736 252.146 328.468 245.628 327.905Z" fill="#6DACCE"/>
<path d="M331.345 340.02C332.243 348.414 326.166 355.945 317.773 356.843C309.379 357.74 301.846 351.664 300.95 343.27C300.052 334.876 306.129 327.344 314.522 326.448C322.916 325.55 330.447 331.626 331.345 340.02Z" fill="#FF8383"/>
<path d="M308.143 334.428C306.226 333.795 305.187 331.728 305.82 329.811L307.385 325.078C308.019 323.161 310.086 322.124 312.003 322.757C313.919 323.39 314.959 325.457 314.326 327.373L312.76 332.106C312.127 334.023 310.059 335.062 308.143 334.428Z" fill="#FF8383"/>
<path d="M337.435 336.026L323.888 337.474C321.791 337.699 319.907 336.179 319.682 334.081C319.458 331.983 320.977 330.1 323.076 329.875L336.622 328.427C338.72 328.202 340.603 329.722 340.829 331.82C341.052 333.919 339.532 335.802 337.435 336.026Z" fill="#FF8383"/>
<path d="M334.733 348.538L321.127 347.847C319.019 347.741 317.397 345.947 317.504 343.838C317.612 341.731 319.407 340.109 321.514 340.216L335.12 340.907C337.227 341.013 338.85 342.808 338.742 344.916C338.635 347.023 336.84 348.645 334.733 348.538Z" fill="#FF8383"/>
<path d="M382.96 100.414C381.185 101.645 379.28 102.697 377.304 103.541C376.492 103.886 375.557 103.51 375.21 102.701C374.863 101.887 375.27 100.959 376.052 100.606C379.132 99.2948 382.021 97.4023 384.437 95.1283C385.084 94.5318 386.089 94.5584 386.693 95.1979C387.297 95.8393 387.265 96.847 386.624 97.4535C385.489 98.5182 384.256 99.5147 382.96 100.414ZM392.733 89.1025C392.27 89.4237 391.653 89.4862 391.114 89.2226C390.325 88.8327 390.001 87.8757 390.389 87.0853C391.883 84.0653 392.817 80.8307 393.173 77.4659C393.264 76.5903 394.052 75.9557 394.924 76.0477C395.799 76.1394 396.435 76.9228 396.341 77.7992C395.949 81.5375 394.908 85.1382 393.252 88.4973C393.126 88.7495 392.946 88.9546 392.733 89.1025ZM367.268 105.724C367.031 105.888 366.743 105.992 366.433 106.006C362.688 106.173 358.974 105.678 355.394 104.539C354.555 104.271 354.09 103.374 354.358 102.534C354.629 101.695 355.526 101.231 356.363 101.498C359.582 102.524 362.923 102.968 366.289 102.82C367.171 102.779 367.915 103.461 367.954 104.341C367.979 104.911 367.703 105.422 367.268 105.724ZM394.897 68.3964C394.745 68.5019 394.572 68.5796 394.382 68.63C393.529 68.8486 392.659 68.3329 392.441 67.4797C391.607 64.2295 390.207 61.1663 388.273 58.3781C387.772 57.6557 387.952 56.6625 388.675 56.1609C389.398 55.6599 390.391 55.8388 390.892 56.5612C393.042 59.6605 394.605 63.0703 395.532 66.6892C395.701 67.3522 395.428 68.0281 394.897 68.3964ZM347.446 99.3838C346.885 99.7729 346.115 99.7691 345.552 99.3256C343.084 97.3891 340.919 95.0869 339.11 92.4844C338.771 91.9961 338.449 91.505 338.144 91.0054C337.682 90.2549 337.966 89.2584 338.671 88.8127C339.42 88.3538 340.404 88.5888 340.863 89.3416C341.136 89.7859 341.425 90.2294 341.727 90.6641C343.355 93.0067 345.306 95.0763 347.52 96.817C348.212 97.3598 348.333 98.3621 347.79 99.0549C347.69 99.1845 347.574 99.2951 347.446 99.3838ZM385.66 53.3525C385.07 53.7614 384.259 53.7337 383.697 53.238C381.163 51.0117 378.282 49.2717 375.126 48.0683C374.302 47.7555 373.89 46.8328 374.204 46.0107C374.512 45.1848 375.436 44.7729 376.261 45.0874C379.776 46.4287 382.985 48.3639 385.801 50.8424C386.464 51.4251 386.529 52.4341 385.947 53.0937C385.86 53.1942 385.762 53.2818 385.66 53.3525ZM336.554 81.6388C336.379 81.76 336.174 81.8479 335.952 81.8918C335.087 82.0608 334.249 81.5004 334.079 80.6362C333.352 76.96 333.288 73.2101 333.892 69.4997C334.026 68.6262 334.85 68.0375 335.719 68.1801C336.589 68.3184 337.18 69.1396 337.038 70.0082C336.497 73.3468 336.554 76.7138 337.209 80.0193C337.334 80.6614 337.059 81.2886 336.554 81.6388ZM366.208 45.9149C365.945 46.0976 365.627 46.2039 365.282 46.1993C361.911 46.1604 358.589 46.7193 355.417 47.8613C354.587 48.1595 353.673 47.7287 353.375 46.9027C353.08 46.0729 353.5 45.1625 354.334 44.8601C357.867 43.5872 361.564 42.9655 365.319 43.0086C366.202 43.0191 366.905 43.7414 366.896 44.6216C366.891 45.1603 366.619 45.6296 366.208 45.9149ZM339.87 61.0893C339.384 61.4262 338.728 61.4779 338.177 61.1654C337.409 60.7325 337.138 59.7609 337.574 58.9944C339.417 55.7306 341.813 52.849 344.691 50.4267C345.343 49.877 346.371 49.9466 346.939 50.6198C347.505 51.2946 347.42 52.2999 346.745 52.8681C344.161 55.0445 342.007 57.6344 340.349 60.5625C340.228 60.7796 340.062 60.9565 339.87 61.0893Z" fill="#445EEA"/>
<path d="M364.486 59.3976C353.016 60.7257 344.43 67.9487 345.308 75.5313L345.313 75.5707C345.551 77.5497 347.27 78.7253 348.657 77.9327L353.84 74.9757C355.087 74.2638 355.501 72.2799 354.726 70.739L353.844 68.9892C353.844 68.9892 364.069 69.6131 376.961 66.3125L376.557 68.7366C376.302 70.2719 377.047 71.8634 378.254 72.3505L383.986 74.6695C385.38 75.2334 386.799 74.096 386.893 72.27C386.919 71.7569 386.904 71.2404 386.844 70.7219C385.966 63.1393 375.956 58.0695 364.486 59.3976Z" fill="#445EEA"/>
<path d="M379.498 89.6651H350.522L354.815 76.2127C355.62 73.6903 357.964 71.9789 360.611 71.9789H369.409C372.057 71.9789 374.399 73.6903 375.205 76.2127L379.498 89.6651Z" fill="#91A8F6"/>
<path d="M564.981 231.039V228.466C564.981 226.571 566.518 225.035 568.411 225.035C570.306 225.035 571.842 226.571 571.842 228.466V232.733H564.981" fill="#445EEA"/>
<path d="M570.067 253.738H532.978V232.706H570.067V253.738Z" fill="#91A8F6"/>
<path d="M570.067 253.738H551.522H532.977L549.635 244.842C550.77 244.054 552.274 244.054 553.408 244.842L570.067 253.738Z" fill="#445EEA"/>
<path d="M565.049 228.416V250.275H539.762V228.416C539.762 226.522 541.299 224.987 543.193 224.987H568.193L567.499 225.13C566.083 225.552 565.049 226.863 565.049 228.416Z" fill="#DFEDF7"/>
<path d="M541.334 234.301H546.941V228.546H541.334V234.301Z" fill="#445EEA"/>
<path d="M541.334 236.24H562.913" stroke="#445EEA" stroke-width="0.669515" stroke-linecap="round" stroke-linejoin="round"/>
<path d="M541.334 238.177H562.913" stroke="#445EEA" stroke-width="0.669515" stroke-linecap="round" stroke-linejoin="round"/>
<path d="M541.334 240.073H562.913" stroke="#445EEA" stroke-width="0.669515" stroke-linecap="round" stroke-linejoin="round"/>
<path d="M541.334 242.012H551.822" stroke="#445EEA" stroke-width="0.669515" stroke-linecap="round" stroke-linejoin="round"/>
<path d="M548.659 228.512H562.914" stroke="#445EEA" stroke-width="0.669515" stroke-linecap="round" stroke-linejoin="round"/>
<path d="M548.659 230.451H562.914" stroke="#445EEA" stroke-width="0.669515" stroke-linecap="round" stroke-linejoin="round"/>
<path d="M548.659 232.39H562.914" stroke="#445EEA" stroke-width="0.669515" stroke-linecap="round" stroke-linejoin="round"/>
<path d="M548.793 234.328H563.047" stroke="#445EEA" stroke-width="0.669515" stroke-linecap="round" stroke-linejoin="round"/>
<path d="M560.955 253.738H532.978V232.706L560.955 253.738Z" fill="#445EEA"/>
<path d="M542.089 253.738H570.067V232.706L542.089 253.738Z" fill="#445EEA"/>
<path d="M533.83 264.279C532.047 263.042 530.394 261.628 528.914 260.07C528.31 259.429 528.335 258.419 528.973 257.814C529.613 257.208 530.626 257.25 531.23 257.871C533.526 260.296 536.329 262.347 539.296 263.804C540.08 264.203 540.41 265.149 540.021 265.942C539.632 266.731 538.676 267.056 537.885 266.668C536.496 265.982 535.13 265.177 533.83 264.279ZM547.845 269.47C547.382 269.149 547.107 268.593 547.167 267.997C547.255 267.119 548.037 266.48 548.912 266.57C552.268 266.906 555.626 266.651 558.898 265.805C559.75 265.584 560.622 266.095 560.841 266.948C561.061 267.8 560.55 268.671 559.695 268.891C556.061 269.832 552.324 270.118 548.594 269.742C548.313 269.715 548.058 269.618 547.845 269.47ZM523.359 251.441C523.122 251.277 522.925 251.042 522.804 250.756C521.337 247.306 520.498 243.654 520.313 239.904C520.269 239.025 520.948 238.275 521.827 238.232C522.708 238.192 523.455 238.869 523.501 239.746C523.664 243.12 524.419 246.404 525.738 249.506C526.083 250.318 525.707 251.254 524.896 251.598C524.371 251.822 523.795 251.743 523.359 251.441ZM567.997 264.242C567.846 264.137 567.712 264.003 567.599 263.842C567.095 263.12 567.273 262.125 567.995 261.622C570.748 259.703 573.127 257.318 575.06 254.531C575.562 253.806 576.554 253.628 577.278 254.129C578 254.63 578.181 255.623 577.679 256.347C575.529 259.446 572.883 262.104 569.819 264.239C569.256 264.632 568.529 264.611 567.997 264.242ZM522.353 230.647C521.792 230.258 521.525 229.536 521.742 228.854C522.692 225.863 524.089 223.029 525.894 220.427C526.232 219.94 526.579 219.468 526.94 219.007C527.482 218.311 528.577 218.256 529.176 218.729C529.87 219.271 529.995 220.272 529.454 220.965C529.13 221.382 528.816 221.808 528.513 222.244C526.89 224.584 525.634 227.133 524.782 229.818C524.517 230.657 523.619 231.122 522.78 230.856C522.624 230.808 522.481 230.736 522.353 230.647ZM578.856 250.324C578.266 249.915 578.009 249.144 578.276 248.445C579.472 245.294 580.091 241.985 580.114 238.608C580.118 237.727 580.838 237.017 581.717 237.024C582.602 237.025 583.308 237.747 583.303 238.628C583.28 242.388 582.589 246.074 581.256 249.578C580.943 250.401 580.022 250.814 579.2 250.501C579.074 250.456 578.958 250.395 578.856 250.324ZM535.159 214.234C534.984 214.113 534.83 213.953 534.711 213.76C534.249 213.009 534.481 212.027 535.232 211.565C538.426 209.598 541.913 208.226 545.599 207.49C546.465 207.308 547.303 207.878 547.474 208.741C547.649 209.605 547.088 210.443 546.224 210.616C542.912 211.279 539.775 212.512 536.905 214.28C536.348 214.624 535.662 214.583 535.159 214.234ZM579.006 229.503C578.743 229.321 578.532 229.061 578.415 228.737C577.269 225.557 575.582 222.642 573.403 220.075C572.833 219.403 572.916 218.396 573.586 217.827C574.257 217.26 575.254 217.345 575.835 218.01C578.26 220.871 580.139 224.115 581.417 227.653C581.716 228.483 581.285 229.395 580.457 229.695C579.952 229.878 579.417 229.788 579.006 229.503ZM555.572 210.144C555.085 209.806 554.807 209.21 554.907 208.583C555.043 207.712 555.86 207.118 556.73 207.257C560.435 207.842 563.974 209.078 567.249 210.926C568.033 211.372 568.285 212.336 567.854 213.099C567.42 213.866 566.446 214.138 565.681 213.705C562.739 212.045 559.561 210.932 556.233 210.406C555.987 210.368 555.763 210.277 555.572 210.144Z" fill="#445EEA"/>
<path d="M443.786 167.228H378.53C372.113 167.228 366.909 172.43 366.909 178.847V216.477C366.909 222.608 371.66 227.618 377.679 228.054L364.224 250.104L399.687 228.097H443.786C450.204 228.097 455.405 222.895 455.405 216.477V178.847C455.405 172.43 450.204 167.228 443.786 167.228Z" fill="#91A8F6"/>
<mask id="mask1_4_304" style="mask-type:alpha" maskUnits="userSpaceOnUse" x="364" y="167" width="92" height="84">
<path d="M443.786 167.228H378.53C372.113 167.228 366.909 172.43 366.909 178.847V216.477C366.909 222.608 371.66 227.618 377.679 228.054L364.224 250.104L399.687 228.097H443.786C450.204 228.097 455.405 222.895 455.405 216.477V178.847C455.405 172.43 450.204 167.228 443.786 167.228Z" fill="#91A8F6"/>
</mask>
<g mask="url(#mask1_4_304)">
<path d="M413.023 189.119C413.023 193.289 409.643 196.67 405.472 196.67C401.302 196.67 397.921 193.289 397.921 189.119C397.921 184.949 401.302 181.568 405.472 181.568C409.643 181.568 413.023 184.949 413.023 189.119Z" fill="#445EEA"/>
<path d="M413.023 189.119C413.023 193.289 409.643 196.67 405.472 196.67C401.302 196.67 397.921 193.289 397.921 189.119C397.921 184.949 401.302 181.568 405.472 181.568C409.643 181.568 413.023 184.949 413.023 189.119Z" stroke="#445EEA" stroke-width="2.74571" stroke-linecap="round" stroke-linejoin="round"/>
<path d="M429.007 214.517H393.31C393.31 208.199 398.432 203.077 404.751 203.077H417.566C423.885 203.077 429.007 208.199 429.007 214.517Z" fill="#445EEA"/>
<path d="M429.007 214.517H393.31C393.31 208.199 398.432 203.077 404.751 203.077H417.566C423.885 203.077 429.007 208.199 429.007 214.517Z" stroke="#445EEA" stroke-width="2.74571" stroke-linecap="round" stroke-linejoin="round"/>
</g>
<path d="M454.57 79.4183H539.819C550.475 79.4183 559.113 88.0568 559.113 98.7129V142.682C559.113 153.34 550.475 161.978 539.819 161.978H484.072L464.022 179.669V161.978H454.57C443.913 161.978 435.275 153.34 435.275 142.682V98.7129C435.275 88.0568 443.913 79.4183 454.57 79.4183Z" fill="#445EEA"/>
<path d="M551.081 296.479C551.081 296.479 556.373 304.448 546.301 309.032C546.301 309.032 554.912 305.012 558.528 313.136C558.528 313.136 556.279 306.462 563.469 301.283C563.469 301.283 557.553 305.993 551.081 296.479Z" fill="#91A8F6"/>
<path d="M606.629 162.153C606.629 162.153 609.243 171.355 598.252 172.654C598.252 172.654 607.68 171.448 608.65 180.287C608.65 180.287 608.539 173.243 616.965 170.501C616.965 170.501 609.895 173.185 606.629 162.153Z" fill="#91A8F6"/>
<path d="M264.502 38.3833C264.502 38.3833 257.202 44.5652 251.479 35.0926C251.479 35.0926 256.47 43.1791 248.822 47.7142C248.822 47.7142 255.19 44.7046 261.168 51.245C261.168 51.245 255.804 45.915 264.502 38.3833Z" fill="#91A8F6"/>
<path d="M152.337 67.8457C152.337 67.8457 161.896 67.5411 160.492 78.5181C160.492 78.5181 161.608 69.0809 170.419 70.2818C170.419 70.2818 163.559 68.6824 162.94 59.8431C162.94 59.8431 163.831 67.3517 152.337 67.8457Z" fill="#91A8F6"/>
<path d="M221.117 20.0952C221.117 20.0952 219.728 23.1273 216.52 20.9877C216.52 20.9877 219.294 22.8002 217.551 25.3637C217.551 25.3637 219.115 23.4696 221.971 24.6466C221.971 24.6466 219.489 23.7592 221.117 20.0952Z" fill="#91A8F6"/>
<path d="M393.73 133.575C393.73 133.575 393.084 136.847 389.466 135.512C389.466 135.512 392.585 136.63 391.487 139.528C391.487 139.528 392.567 137.322 395.617 137.802C395.617 137.802 392.999 137.517 393.73 133.575Z" fill="#91A8F6"/>
<path d="M70.0247 190.176C70.0247 190.176 72.0937 192.792 68.7298 194.677C68.7298 194.677 71.6057 193.03 73.0972 195.747C73.0972 195.747 72.1206 193.493 74.4665 191.486C74.4665 191.486 72.5486 193.292 70.0247 190.176Z" fill="#91A8F6"/>
<path d="M362.731 281.25C362.731 281.25 359.673 282.575 358.718 278.839C358.718 278.839 359.569 282.041 356.559 282.781C356.559 282.781 358.987 282.419 360.322 285.203C360.322 285.203 359.07 282.885 362.731 281.25Z" fill="#91A8F6"/>
<path d="M501.226 180.321C501.226 182.486 499.467 184.246 497.304 184.246C495.138 184.246 493.377 182.486 493.377 180.321C493.377 178.157 495.138 176.397 497.304 176.397C499.467 176.397 501.226 178.157 501.226 180.321ZM499.282 180.321C499.282 179.23 498.394 178.341 497.304 178.341C496.21 178.341 495.321 179.23 495.321 180.321C495.321 181.413 496.21 182.301 497.304 182.301C498.394 182.301 499.282 181.413 499.282 180.321Z" fill="#91A8F6"/>
<path d="M591.069 109.231C591.069 111.128 592.607 112.665 594.503 112.665C596.399 112.665 597.937 111.128 597.937 109.231C597.937 107.335 596.399 105.797 594.503 105.797C592.607 105.797 591.069 107.335 591.069 109.231Z" fill="#91A8F6"/>
<path d="M192.148 121.115C191.615 121.052 191.131 121.433 191.067 121.966L190.802 124.206C190.739 124.739 191.122 125.223 191.654 125.286C192.187 125.349 192.671 124.968 192.734 124.434L192.999 122.195C193.062 121.661 192.68 121.178 192.148 121.115Z" fill="#91A8F6"/>
<path d="M189.887 118.567L187.645 118.302C187.113 118.239 186.629 118.621 186.566 119.155C186.503 119.687 186.884 120.171 187.417 120.234L189.658 120.499C190.19 120.562 190.674 120.181 190.737 119.649C190.8 119.115 190.419 118.63 189.887 118.567Z" fill="#91A8F6"/>
<path d="M192.963 114.225C192.431 114.162 191.946 114.545 191.883 115.078L191.618 117.316C191.555 117.85 191.937 118.334 192.469 118.397C193.002 118.46 193.487 118.078 193.55 117.545L193.815 115.307C193.878 114.773 193.496 114.288 192.963 114.225Z" fill="#91A8F6"/>
<path d="M197.2 119.277L194.959 119.012C194.427 118.949 193.943 119.33 193.88 119.864C193.817 120.396 194.198 120.881 194.73 120.944L196.972 121.209C197.505 121.272 197.988 120.89 198.051 120.357C198.114 119.824 197.734 119.34 197.2 119.277Z" fill="#91A8F6"/>
<path d="M437.955 57.5965C437.606 58.0044 437.652 58.6192 438.06 58.9689L439.773 60.437C440.181 60.7866 440.795 60.738 441.144 60.3301C441.493 59.923 441.447 59.3096 441.039 58.9599L439.326 57.4918C438.919 57.1422 438.304 57.1894 437.955 57.5965Z" fill="#91A8F6"/>
<path d="M434.581 58.0566L433.112 59.7693C432.763 60.1764 432.811 60.7919 433.219 61.1415C433.626 61.4905 434.24 61.4425 434.589 61.0354L436.058 59.3227C436.407 58.9149 436.36 58.3008 435.953 57.9518C435.545 57.6022 434.93 57.6487 434.581 58.0566Z" fill="#91A8F6"/>
<path d="M432.689 53.0822C432.34 53.4901 432.387 54.1056 432.795 54.4553L434.506 55.9221C434.914 56.2717 435.529 56.2237 435.878 55.8158C436.227 55.4087 436.18 54.7946 435.772 54.445L434.061 52.9782C433.653 52.6286 433.038 52.6751 432.689 53.0822Z" fill="#91A8F6"/>
<path d="M439.244 52.3784L437.775 54.0918C437.426 54.4989 437.473 55.1138 437.881 55.4634C438.289 55.8131 438.904 55.7651 439.253 55.358L440.721 53.6445C441.07 53.2374 441.023 52.6233 440.615 52.2737C440.207 51.924 439.593 51.9713 439.244 52.3784Z" fill="#91A8F6"/>
<path d="M540.826 187.256H519.241C516.48 187.256 514.232 185.011 514.232 182.249C514.232 179.542 516.393 177.329 519.082 177.244C519.152 173.032 522.602 169.626 526.831 169.626C529.456 169.626 531.896 170.961 533.322 173.145C536.229 172.73 538.827 174.558 539.564 177.241H540.826C543.587 177.241 545.834 179.489 545.834 182.249C545.834 185.011 543.587 187.256 540.826 187.256ZM519.241 178.723C517.297 178.723 515.715 180.306 515.715 182.249C515.715 184.194 517.297 185.775 519.241 185.775H540.826C542.77 185.775 544.351 184.194 544.351 182.249C544.351 180.306 542.77 178.723 540.826 178.723H538.335L538.235 178.098C537.861 175.741 535.621 174.094 533.126 174.688L532.581 174.818L532.308 174.329C531.199 172.342 529.1 171.107 526.831 171.107C523.375 171.107 520.561 173.92 520.561 177.377C520.561 177.56 520.574 177.74 520.59 177.918L520.658 178.723H519.241Z" fill="#91A8F6"/>
<path d="M351.126 379.32H445.677C448.483 379.32 450.899 377.321 451.419 374.564L464.163 319.881C464.849 316.279 462.086 312.942 458.419 312.942H363.871C361.06 312.942 358.65 314.942 358.125 317.699L345.382 372.382C344.7 375.984 347.46 379.32 351.126 379.32Z" fill="#DFEDF7"/>
<path d="M358.125 317.699C358.409 316.182 359.276 314.898 360.457 314.045C362.225 315.322 363.237 317.538 362.79 319.881L350.049 374.565C349.759 376.082 348.902 377.362 347.718 378.215C345.952 376.94 344.939 374.72 345.383 372.382L358.125 317.699Z" fill="#6DACCE"/>
<path d="M417.592 353.107H402.087C398.906 353.107 396.327 350.529 396.327 347.348C396.327 344.167 398.906 341.589 402.087 341.589H417.592C420.773 341.589 423.351 344.167 423.351 347.348C423.351 350.529 420.773 353.107 417.592 353.107Z" fill="white"/>
<path d="M309.167 384.038H440.872C444.546 384.038 445.677 381.061 445.677 377.386H302.513C302.513 381.061 305.493 384.038 309.167 384.038Z" fill="#6DACCE"/>
<path d="M301.528 377.386H348.213C348.213 381.061 344.832 384.038 340.658 384.038H310.063C310.021 384.038 301.371 384.037 301.33 384.037C297.026 383.976 297.224 377.386 301.528 377.386Z" fill="#6DACCE"/>
<path d="M516.167 391.651H118.323C116.12 391.651 114.335 389.866 114.335 387.664C114.335 385.463 116.12 383.677 118.323 383.677H516.167C518.368 383.677 520.153 385.463 520.153 387.664C520.153 389.866 518.368 391.651 516.167 391.651Z" fill="#1B2A67"/>
<path d="M315.623 379.218H310.971C310.054 379.218 309.31 378.475 309.31 377.557C309.31 376.64 310.054 375.895 310.971 375.895H315.623C316.54 375.895 317.285 376.64 317.285 377.557C317.285 378.475 316.54 379.218 315.623 379.218Z" fill="#6DACCE"/>
<path d="M324.706 379.218H320.054C319.136 379.218 318.392 378.475 318.392 377.557C318.392 376.64 319.136 375.895 320.054 375.895H324.706C325.622 375.895 326.367 376.64 326.367 377.557C326.367 378.475 325.622 379.218 324.706 379.218Z" fill="#6DACCE"/>
<path d="M333.787 379.218H329.136C328.217 379.218 327.474 378.475 327.474 377.557C327.474 376.64 328.217 375.895 329.136 375.895H333.787C334.705 375.895 335.448 376.64 335.448 377.557C335.448 378.475 334.705 379.218 333.787 379.218Z" fill="#6DACCE"/>
<path d="M342.869 379.218H338.218C337.299 379.218 336.556 378.475 336.556 377.557C336.556 376.64 337.299 375.895 338.218 375.895H342.869C343.787 375.895 344.531 376.64 344.531 377.557C344.531 378.475 343.787 379.218 342.869 379.218Z" fill="#6DACCE"/>
<path d="M176.554 358.916C176.554 358.916 175.584 336.743 170.781 330.886" stroke="#1B2A67" stroke-width="0.841473" stroke-miterlimit="10" stroke-linecap="round"/>
<path d="M172.793 317.925C173.79 322.72 173.127 326.914 171.313 327.291C169.499 327.667 167.22 324.086 166.224 319.29C166.215 319.241 166.205 319.194 166.195 319.147C165.369 314.879 171.821 313.54 172.763 317.782C172.774 317.83 172.783 317.878 172.793 317.925Z" fill="#FFD2D3"/>
<path d="M180.246 329.105C175.452 330.102 171.257 329.439 170.881 327.625C170.504 325.812 174.086 323.533 178.881 322.537C178.929 322.527 178.977 322.517 179.025 322.507C183.292 321.681 184.632 328.132 180.39 329.074C180.342 329.085 180.294 329.095 180.246 329.105Z" fill="#FFD2D3"/>
<path d="M163.841 332.513C168.636 331.517 172.218 329.24 171.841 327.426C171.464 325.612 167.271 324.949 162.477 325.946C162.428 325.956 162.38 325.965 162.333 325.975C158.091 326.917 159.43 333.37 163.697 332.544L163.841 332.513Z" fill="#FFD2D3"/>
<path d="M171.231 338.519C172.961 333.937 172.959 329.693 171.225 329.038C169.491 328.384 166.684 331.568 164.954 336.15C164.938 336.195 164.92 336.242 164.903 336.288C163.425 340.375 169.588 342.7 171.178 338.657C171.196 338.611 171.214 338.566 171.231 338.519Z" fill="#FFD2D3"/>
<path d="M175.86 337.558C172.448 334.045 170.759 330.149 172.089 328.858C173.417 327.568 177.261 329.37 180.674 332.883C180.707 332.919 180.741 332.954 180.775 332.99C183.759 336.148 179.033 340.738 175.962 337.662C175.929 337.627 175.894 337.593 175.86 337.558Z" fill="#FFD2D3"/>
<path d="M173.46 328.098C173.718 329.337 172.921 330.551 171.681 330.81C170.441 331.067 169.227 330.27 168.97 329.031C168.712 327.79 169.508 326.576 170.747 326.318C171.989 326.062 173.202 326.858 173.46 328.098Z" fill="#D15E79"/>
<path d="M190.492 352C184.169 358.148 177.156 361.194 174.83 358.802C172.504 356.409 175.745 349.486 182.069 343.337C188.393 337.188 197.731 336.535 197.731 336.535C197.731 336.535 196.816 345.85 190.492 352Z" fill="#445EEA"/>
<path d="M168.479 345.496C174.825 349.951 178.606 355.509 176.92 357.909C175.235 360.31 168.722 358.645 162.375 354.19C156.028 349.735 153.936 341.777 153.936 341.777C153.936 341.777 162.132 341.04 168.479 345.496Z" fill="#445EEA"/>
<path d="M185.896 385.007H164.858L161.176 358.539H189.578L185.896 385.007Z" fill="#1B2A67"/>
<path d="M190.679 365.326H160.076C159.25 365.326 158.58 364.657 158.58 363.832V356.981C158.58 356.155 159.25 355.486 160.076 355.486H190.679C191.505 355.486 192.173 356.155 192.173 356.981V363.832C192.173 364.657 191.505 365.326 190.679 365.326Z" fill="#1B2A67"/>
<mask id="mask2_4_304" style="mask-type:alpha" maskUnits="userSpaceOnUse" x="309" y="276" width="35" height="18">
<path d="M342.859 276.911L343.075 292.68L309.501 293.141L309.284 277.372L342.859 276.911Z" fill="white"/>
</mask>
<g mask="url(#mask2_4_304)">
<g opacity="0.8">
<path d="M321.641 290.442C320.538 292.363 320.765 294.307 321.742 296.845C321.89 297.227 322.023 297.56 322.144 297.852" stroke="white" stroke-width="0.407"/>
</g>
</g>
</g>
</g>
<defs>
<clipPath id="clip0_4_304">
<rect width="661.375" height="407" fill="white"/>
</clipPath>
</defs>
</svg>
